<?xml version="1.0" standalone="no"?>
<!DOCTYPE svg PUBLIC "-//W3C//DTD SVG 20010904//EN"
 "http://www.w3.org/TR/2001/REC-SVG-20010904/DTD/svg10.dtd">
<svg version="1.0" xmlns="http://www.w3.org/2000/svg"
 width="800.000000pt" height="800.000000pt" viewBox="0 0 800.000000 800.000000"
 preserveAspectRatio="xMidYMid meet">
<metadata>
Created by potrace 1.14, written by Peter Selinger 2001-2017
</metadata>
<g transform="translate(0.000000,800.000000) scale(0.100000,-0.100000)"
fill="#000000" stroke="none">
<path d="M3815 7993 c-319 -36 -545 -102 -800 -233 -317 -162 -607 -420 -799
-710 -88 -133 -94 -143 -155 -270 -103 -214 -175 -462 -199 -685 -9 -90 -8
-456 1 -515 38 -225 37 -222 89 -395 37 -122 156 -385 202 -445 7 -8 17 -26
24 -40 7 -14 49 -74 94 -134 240 -322 568 -573 938 -719 63 -25 128 -49 144
-53 26 -6 28 -5 21 12 -31 75 -36 325 -10 494 2 14 7 45 10 70 6 38 24 135 40
216 3 11 18 67 35 123 72 243 181 475 320 682 281 417 687 746 1148 930 122
49 195 72 382 119 48 12 201 37 285 47 39 4 159 8 268 8 l198 0 -6 25 c-4 14
-22 66 -42 115 -150 379 -401 705 -728 946 -281 207 -604 341 -950 394 -100
16 -430 27 -510 18z"/>
<path d="M5595 6138 c-309 -46 -498 -105 -734 -226 -93 -47 -268 -158 -331
-208 -333 -269 -563 -584 -704 -966 -46 -125 -46 -125 -2 -108 100 38 395 27
659 -25 15 -3 37 -7 50 -9 185 -33 529 -165 704 -270 110 -66 109 -66 193
-123 381 -261 717 -683 889 -1114 75 -190 134 -409 156 -579 3 -25 9 -70 13
-100 3 -30 7 -146 7 -257 0 -112 3 -203 7 -203 22 0 193 71 307 128 171 85
171 85 171 94 0 5 5 8 11 8 6 0 40 21 77 47 288 203 520 463 680 763 86 162
162 366 197 530 9 41 18 84 21 95 2 11 7 43 10 70 3 28 8 57 11 65 9 27 11
384 2 470 -67 636 -407 1203 -934 1561 -109 73 -104 70 -245 142 -205 104
-413 169 -680 213 -62 10 -473 12 -535 2z"/>
<path d="M1360 6001 c-603 -247 -1052 -723 -1251 -1324 -43 -132 -46 -144 -81
-332 -23 -126 -31 -421 -16 -570 38 -370 186 -754 402 -1045 23 -30 43 -57 46
-60 3 -3 30 -34 59 -70 178 -212 432 -407 696 -535 113 -55 321 -133 396 -149
13 -3 67 -14 119 -25 142 -30 214 -36 450 -35 222 0 299 9 490 55 163 39 342
108 500 192 76 40 247 150 287 183 12 11 44 37 72 59 76 59 257 248 327 340
51 68 116 165 161 240 75 124 206 436 190 451 -2 3 -15 0 -29 -5 -93 -35 -353
-29 -613 15 -49 8 -92 17 -95 19 -3 2 -21 6 -40 9 -161 25 -512 166 -700 280
-133 80 -309 208 -379 274 -162 154 -224 219 -305 320 -131 163 -251 361 -327
537 -17 39 -34 79 -39 90 -50 108 -125 374 -145 510 -3 23 -7 52 -10 65 -13
68 -20 194 -20 368 0 164 -2 192 -15 191 -8 0 -67 -22 -130 -48z"/>
<path d="M4624 4193 c25 -65 34 -222 22 -368 -22 -256 -51 -399 -127 -627
-218 -659 -729 -1215 -1369 -1491 -134 -57 -258 -100 -385 -131 -87 -22 -131
-30 -255 -51 -82 -14 -188 -20 -363 -20 -108 0 -197 -4 -197 -8 0 -25 81 -220
135 -325 133 -255 326 -499 525 -662 30 -25 57 -47 60 -50 3 -3 21 -17 40 -30
19 -13 37 -27 40 -30 14 -16 158 -104 251 -153 243 -127 517 -210 784 -236 89
-8 416 -7 465 2 14 3 47 8 73 12 118 16 289 61 424 111 286 105 541 267 763
485 347 339 573 798 628 1274 9 78 8 467 -1 525 -34 211 -60 318 -119 480
-182 499 -582 946 -1053 1175 -141 69 -172 82 -258 111 -84 29 -91 29 -83 7z"/>
</g>
</svg>
